<?xml version="1.0" encoding="UTF-8" standalone="no"?><!-- Generator: Gravit.io --><svg xmlns="http://www.w3.org/2000/svg" xmlns:xlink="http://www.w3.org/1999/xlink" style="isolation:isolate" viewBox="0 0 1000 1000"><clipPath id="_clipPath_kabQjoBoauEXJogCzS32HKyJPlNFc8tg"><path d=" M -1927 -2000 L 2073 -2000 L 2073 2000 L -1927 2000 L -1927 -2000 Z  M 882.795 723.189 L 496.873 946 L 110.953 723.189 L 110.953 277.566 L 496.873 54.755 L 882.795 277.566 L 882.795 723.189 L 882.795 723.189 Z " fill-rule="evenodd" id="Compound Path" fill="rgb(255,255,255)"/></clipPath><g clip-path="url(#_clipPath_kabQjoBoauEXJogCzS32HKyJPlNFc8tg)"><mask id="_mask_nbAsYNvZfMMtXzi5HLQU1mIF94Dr5zx7" x="-200%" y="-200%" width="400%" height="400%"><rect x="-200%" y="-200%" width="400%" height="400%" style="fill:white;"/><path d=" M 882.795 723.189 L 496.873 946 L 110.953 723.189 L 110.953 277.566 L 496.873 54.755 L 882.795 277.566 L 882.795 723.189 Z " id="hex" fill="black" stroke="none"/></mask><path d=" M 882.795 723.189 L 496.873 946 L 110.953 723.189 L 110.953 277.566 L 496.873 54.755 L 882.795 277.566 L 882.795 723.189 Z " id="hex" fill="rgb(190,244,244)" mask="url(#_mask_nbAsYNvZfMMtXzi5HLQU1mIF94Dr5zx7)" stroke-width="40" stroke="rgb(254,225,2)" stroke-opacity="10000" stroke-linejoin="miter" stroke-linecap="square" stroke-miterlimit="3"/><path d=" M 882.795 723.189 L 496.873 946 L 110.953 723.189 L 110.953 277.566 L 496.873 54.755 L 882.795 277.566 L 882.795 723.189 Z " id="hex" fill="rgb(190,244,244)"/></g><path d=" M 882.795 723.189 L 496.873 946 L 110.953 723.189 L 110.953 277.566 L 496.873 54.755 L 882.795 277.566 L 882.795 723.189 Z " id="hex" fill="rgb(190,244,244)"/><g id="sky"><path d=" M 108.528 500.846 L 886.27 483.186 L 890.127 652.998 L 112.384 670.657 L 108.528 500.846 Z " id="Path" fill="rgb(97,251,251)"/><path d=" M 112.69 558.347 L 884.417 580.268 L 879.828 741.815 L 108.101 719.894 L 112.69 558.347 Z " id="Path" fill="rgb(0,227,227)"/></g><g id="hill"><path d=" M 895 638.398 L 512.367 674.301 L 110.953 704.6 L 105.859 718.771 L 501.907 946 L 895 731.86 L 895 638.398 Z " id="Path" fill="rgb(53,206,190)"/><path d=" M 876 747 L 501.907 718.771 L 100 697.785 L 100 731.86 L 496.873 972 L 876 747 Z " id="Path" fill="rgb(37,190,174)"/><path d=" M 816 782 L 218.17 799.955 L 496.873 958 L 816 782 Z " id="Path" fill="rgb(14,128,116)"/></g><g id="body"><path d=" M 509.889 458.288 C 487.976 466.222 473.057 472.073 465.105 475.812 C 459.964 473.901 454.133 474.56 447.581 477.76 C 443.15 474.493 434.073 474.503 420.321 477.76 C 401.597 496.096 333.4 487.053 297.651 490.416 C 261.904 493.78 230.027 578.062 229.502 584.852 C 228.977 591.642 230.285 595.222 235.343 597.508 C 231.014 600.695 229.808 605.612 233.396 609.191 C 228.825 619.089 226.888 631.106 227.555 645.213 C 223.439 650.824 218.257 661.868 211.978 678.314 C 215.618 715.275 219.037 738.001 222.208 746.464 C 220.51 754.761 220.52 762.38 222.208 769.287 C 220.746 779.788 221.564 789.065 224.634 797.089 C 238.07 803.828 253.949 808.245 261.629 804.878 C 266.15 802.897 265.327 781.831 267.854 776.349 C 273.684 763.7 274.206 741.732 269.418 710.442 C 276.301 690.739 279.881 675.172 280.127 663.711 C 286.748 652.759 291.626 639.787 294.731 624.768 C 304.02 654.161 313.258 675.265 322.411 688.05 C 323.088 691.924 324.904 695.503 327.832 698.759 C 290.153 752.08 274.281 784.237 280.127 795.142 C 286.334 807.64 307.695 821.179 307.387 826.296 C 307.079 831.413 410.466 906.596 424.215 910.023 C 437.964 913.451 458.29 891.246 458.29 869.133 C 458.29 854.144 456.658 837.186 463.158 836.032 C 469.658 834.878 487.859 576.774 470.946 538.121 C 486.325 537.331 507.428 528.903 534.228 512.808 L 509.889 458.288 Z " id="black" fill="rgb(14,128,116)"/><path d=" M 416.426 481.654 C 395.288 507.179 356.719 512.095 300.572 496.257 C 296.953 498.573 295.34 501.179 295.704 504.046 C 322.304 508.517 345.031 596.147 363.854 766.909 Q 366.887 873.854 373.59 864.265 C 380.293 854.677 446.034 835.716 493.338 838.953 C 509.363 828.115 519.757 818.389 524.492 809.746 C 531.516 811.15 537.718 810.53 541.043 801.957 C 544.369 793.385 539.092 783.341 514.757 676.367 C 490.421 569.393 470.53 507.025 416.426 481.654 Z " id="tabbard" fill="rgb(190,244,244)"/><clipPath id="_clipPath_qegQgKWN9Ca19dgbDwrghiO7zeWynpv4"><path d=" M -1927 -2000 L 2073 -2000 L 2073 2000 L -1927 2000 L -1927 -2000 Z  M 394.034 504.046 C 431.126 592.217 459.713 698.365 479.708 822.402 L 394.034 504.046 Z " fill-rule="evenodd" id="Compound Path" fill="rgb(255,255,255)"/></clipPath><g clip-path="url(#_clipPath_qegQgKWN9Ca19dgbDwrghiO7zeWynpv4)"><mask id="_mask_pCU3H3bdYg9BKENb95qVEKTxzsjhCwEc" x="-200%" y="-200%" width="400%" height="400%"><rect x="-200%" y="-200%" width="400%" height="400%" style="fill:white;"/><path d=" M 394.034 504.046 C 431.126 592.217 459.713 698.365 479.708 822.402" id="cross" fill="black" stroke="none"/></mask><path d=" M 394.034 504.046 C 431.126 592.217 459.713 698.365 479.708 822.402" id="cross" fill="none" mask="url(#_mask_pCU3H3bdYg9BKENb95qVEKTxzsjhCwEc)" stroke-width="4" stroke="rgb(14,128,116)" stroke-opacity="10000" stroke-linejoin="miter" stroke-linecap="square" stroke-miterlimit="3"/><path d=" M 394.034 504.046 C 431.126 592.217 459.713 698.365 479.708 822.402" id="cross" fill="none"/></g><path d=" M 394.034 504.046 C 431.126 592.217 459.713 698.365 479.708 822.402" id="cross" fill="none"/><clipPath id="_clipPath_C0aHay4PEbK4728cKqicfiPGMlfDWiWG"><path d=" M -1927 -2000 L 2073 -2000 L 2073 2000 L -1927 2000 L -1927 -2000 Z  M 498.206 638.398 C 468.437 657.579 423.023 672.852 361.907 684.156 L 498.206 638.398 Z " fill-rule="evenodd" id="Compound Path" fill="rgb(255,255,255)"/></clipPath><g clip-path="url(#_clipPath_C0aHay4PEbK4728cKqicfiPGMlfDWiWG)"><mask id="_mask_XcOcmmaxnvp5RmF3ZywntIsV9Rsldibj" x="-200%" y="-200%" width="400%" height="400%"><rect x="-200%" y="-200%" width="400%" height="400%" style="fill:white;"/><path d=" M 498.206 638.398 C 468.437 657.579 423.023 672.852 361.907 684.156" id="cross" fill="black" stroke="none"/></mask><path d=" M 498.206 638.398 C 468.437 657.579 423.023 672.852 361.907 684.156" id="cross" fill="none" mask="url(#_mask_XcOcmmaxnvp5RmF3ZywntIsV9Rsldibj)" stroke-width="4" stroke="rgb(14,128,116)" stroke-opacity="10000" stroke-linejoin="miter" stroke-linecap="square" stroke-miterlimit="3"/><path d=" M 498.206 638.398 C 468.437 657.579 423.023 672.852 361.907 684.156" id="cross" fill="none"/></g><path d=" M 498.206 638.398 C 468.437 657.579 423.023 672.852 361.907 684.156" id="cross" fill="none"/><path d=" M 519.624 378.456 C 517.334 374.351 516.704 367.556 513.783 358.011 Q 511.989 340.354 515.371 334.645 Q 518.753 328.937 523.519 327.83 C 523.63 322.208 527.534 318.973 535.201 318.095 C 536.936 318.189 538.893 317.225 541.043 315.174 C 543.054 315.038 544.687 315.696 545.911 317.121 C 548.927 314.525 551.867 315.518 554.673 316.148 C 557.013 318.876 559.944 320.832 563.435 321.989 C 565.47 325.879 566.453 330.108 566.356 334.645 C 565.537 337.006 563.924 337.99 561.488 337.566 C 561.975 340.38 561.012 342.661 558.567 344.381 C 557.313 346.875 555.7 348.184 553.699 348.275 C 555.666 350.351 554.378 356.202 553.699 365.8 L 519.624 378.456 Z " id="hand" fill="rgb(37,190,174)"/></g><g id="head"><path d=" M 366.775 349.249 C 376.835 354.701 382.687 360.552 384.299 366.773 C 390.21 371.44 405.056 375.465 406.691 376.509 C 408.325 377.553 410.574 381.239 409.611 382.35 C 408.649 383.461 404.861 386.505 398.902 390.139 C 401.455 393.461 405.684 396.068 411.559 397.927 C 406.124 402.62 406.782 406.524 413.506 407.663 C 412.053 410.171 405.333 411.342 407.664 413.504 C 415.57 419.831 417.364 430.737 414.479 432.976 C 411.595 435.215 402.43 438.313 387.219 443.685 C 389.296 455 389.955 469.938 387.219 488.469 C 388.628 492.47 397.848 495.02 394.034 496.257 C 369.68 504.164 324.388 501.735 310.308 490.416 C 308.671 489.101 319.629 483.217 318.096 481.654 L 342.435 358.011 L 366.775 349.249 Z " id="head" fill="rgb(37,190,174)"/><path d=" M 352.171 358.985 C 351.381 364.978 350.741 368.232 352.171 370.667 C 353.601 373.103 361.631 384.845 359.96 391.112 C 360.115 395.702 359.152 400.255 357.039 404.742 C 356.643 418.947 351.135 423.825 340.488 419.346 C 345.567 439.08 343.306 451.097 333.673 455.368 C 329.396 463.837 322.915 469.363 314.202 471.918 C 308.653 482.276 300.225 479.69 288.889 466.077 C 278.788 466.424 287.242 449.452 295.704 426.161 C 304.166 402.87 306.795 390.317 309.334 374.562 L 352.171 358.985 Z " id="hair" fill="rgb(14,128,116)"/><path d=" M 381.378 380.403 C 377.967 379.393 374.406 379.079 370.669 379.429 C 370.24 377.733 368.952 376.119 366.775 374.562 C 371.273 372.514 375.503 371.225 377.484 368.72 C 379.623 372.761 380.301 376.036 381.378 380.403 Z " id="eye" fill="rgb(190,244,244)"/><path d=" M 380.404 363.852 C 378.642 366.245 374.758 370.475 366.775 374.562 L 369.695 377.482 C 376.75 372.439 380.338 367.916 380.404 363.852 Z " id="eyelid" fill="rgb(14,128,116)"/><clipPath id="_clipPath_LCdYkDaWyXXvOcdG06DGALNO73lIF4Ys"><path d=" M -1927 -2000 L 2073 -2000 L 2073 2000 L -1927 2000 L -1927 -2000 Z  M 395.982 382.35 C 394.053 383.543 392.441 385.5 391.114 388.192 C 392.29 390.115 393.922 391.748 395.982 393.059 C 397.095 392.411 398.079 391.447 398.902 390.139 L 395.982 382.35 Z " fill-rule="evenodd" id="Compound Path" fill="rgb(255,255,255)"/></clipPath><g clip-path="url(#_clipPath_LCdYkDaWyXXvOcdG06DGALNO73lIF4Ys)"><mask id="_mask_31yOv7KKnYuWMIPOWzmFFxWEby2bQ0WG" x="-200%" y="-200%" width="400%" height="400%"><rect x="-200%" y="-200%" width="400%" height="400%" style="fill:white;"/><path d=" M 395.982 382.35 C 394.053 383.543 392.441 385.5 391.114 388.192 C 392.29 390.115 393.922 391.748 395.982 393.059 C 397.095 392.411 398.079 391.447 398.902 390.139" id="nose" fill="black" stroke="none"/></mask><path d=" M 395.982 382.35 C 394.053 383.543 392.441 385.5 391.114 388.192 C 392.29 390.115 393.922 391.748 395.982 393.059 C 397.095 392.411 398.079 391.447 398.902 390.139" id="nose" fill="none" mask="url(#_mask_31yOv7KKnYuWMIPOWzmFFxWEby2bQ0WG)" stroke-width="2" stroke="rgb(14,128,116)" stroke-opacity="10000" stroke-linejoin="miter" stroke-linecap="square" stroke-miterlimit="3"/><path d=" M 395.982 382.35 C 394.053 383.543 392.441 385.5 391.114 388.192 C 392.29 390.115 393.922 391.748 395.982 393.059 C 397.095 392.411 398.079 391.447 398.902 390.139" id="nose" fill="none"/></g><path d=" M 395.982 382.35 C 394.053 383.543 392.441 385.5 391.114 388.192 C 392.29 390.115 393.922 391.748 395.982 393.059 C 397.095 392.411 398.079 391.447 398.902 390.139" id="nose" fill="none"/></g><g id="hat"><clipPath id="_clipPath_k63aewWbDrcbR80iBioHedvY4P2ZdxQF"><path d=" M -1927 -2000 L 2073 -2000 L 2073 2000 L -1927 2000 L -1927 -2000 Z  M 276.233 370.667 C 261.492 376.615 243.004 385.063 220.74 395.98 C 209.567 391.019 196.272 396.546 180.823 412.531 C 186.678 410.284 191.231 409.969 194.453 411.557 C 186.056 414.538 180.874 418.442 178.876 423.24 C 173.046 424.138 166.24 428.042 158.431 434.923 C 155.58 438.278 154.94 441.208 156.484 443.685 C 153.428 447.969 153.438 450.9 156.484 452.447 C 152.246 458.166 152.58 462.07 157.458 464.13 C 156.391 481.595 162.242 488.744 174.982 485.548 C 163.928 482.423 161.991 474.969 169.141 463.156 C 171.133 464.573 173.089 464.908 174.982 464.13 C 179.304 459.735 180.287 455.525 177.903 451.473 C 182.89 456.638 185.171 451.78 184.718 436.87 C 190.833 438.402 190.213 437.134 196.401 429.081 C 197.8 429.589 200.194 428.148 203.553 424.728 C 206.978 423.776 210.358 421.735 213.661 418.576 C 216.582 417.184 218.951 415.18 220.74 412.531 C 223.398 412.469 226.004 410.532 228.528 408.636 C 231.031 408.361 233.575 406.661 236.128 403.506 C 240.421 403.092 243.417 400.595 245.079 395.98 L 251.894 389.165 C 261.17 384.554 269.942 379.696 278.18 374.562 L 276.233 370.667 L 276.233 370.667 Z " fill-rule="evenodd" id="Compound Path" fill="rgb(255,255,255)"/></clipPath><g clip-path="url(#_clipPath_k63aewWbDrcbR80iBioHedvY4P2ZdxQF)"><mask id="_mask_XDLoHtNOraXySs3aoo8c1TSCoAAo3itf" x="-200%" y="-200%" width="400%" height="400%"><rect x="-200%" y="-200%" width="400%" height="400%" style="fill:white;"/><path d=" M 276.233 370.667 C 261.492 376.615 243.004 385.063 220.74 395.98 C 209.567 391.019 196.272 396.546 180.823 412.531 C 186.678 410.284 191.231 409.969 194.453 411.557 C 186.056 414.538 180.874 418.442 178.876 423.24 C 173.046 424.138 166.24 428.042 158.431 434.923 C 155.58 438.278 154.94 441.208 156.484 443.685 C 153.428 447.969 153.438 450.9 156.484 452.447 C 152.246 458.166 152.58 462.07 157.458 464.13 C 156.391 481.595 162.242 488.744 174.982 485.548 C 163.928 482.423 161.991 474.969 169.141 463.156 C 171.133 464.573 173.089 464.908 174.982 464.13 C 179.304 459.735 180.287 455.525 177.903 451.473 C 182.89 456.638 185.171 451.78 184.718 436.87 C 190.833 438.402 190.213 437.134 196.401 429.081 C 197.8 429.589 200.194 428.148 203.553 424.728 C 206.978 423.776 210.358 421.735 213.661 418.576 C 216.582 417.184 218.951 415.18 220.74 412.531 C 223.398 412.469 226.004 410.532 228.528 408.636 C 231.031 408.361 233.575 406.661 236.128 403.506 C 240.421 403.092 243.417 400.595 245.079 395.98 L 251.894 389.165 C 261.17 384.554 269.942 379.696 278.18 374.562 L 276.233 370.667 Z " id="feather" fill="black" stroke="none"/></mask><path d=" M 276.233 370.667 C 261.492 376.615 243.004 385.063 220.74 395.98 C 209.567 391.019 196.272 396.546 180.823 412.531 C 186.678 410.284 191.231 409.969 194.453 411.557 C 186.056 414.538 180.874 418.442 178.876 423.24 C 173.046 424.138 166.24 428.042 158.431 434.923 C 155.58 438.278 154.94 441.208 156.484 443.685 C 153.428 447.969 153.438 450.9 156.484 452.447 C 152.246 458.166 152.58 462.07 157.458 464.13 C 156.391 481.595 162.242 488.744 174.982 485.548 C 163.928 482.423 161.991 474.969 169.141 463.156 C 171.133 464.573 173.089 464.908 174.982 464.13 C 179.304 459.735 180.287 455.525 177.903 451.473 C 182.89 456.638 185.171 451.78 184.718 436.87 C 190.833 438.402 190.213 437.134 196.401 429.081 C 197.8 429.589 200.194 428.148 203.553 424.728 C 206.978 423.776 210.358 421.735 213.661 418.576 C 216.582 417.184 218.951 415.18 220.74 412.531 C 223.398 412.469 226.004 410.532 228.528 408.636 C 231.031 408.361 233.575 406.661 236.128 403.506 C 240.421 403.092 243.417 400.595 245.079 395.98 L 251.894 389.165 C 261.17 384.554 269.942 379.696 278.18 374.562 L 276.233 370.667 Z " id="feather" fill="rgb(53,206,190)" mask="url(#_mask_XDLoHtNOraXySs3aoo8c1TSCoAAo3itf)" stroke-width="2" stroke="rgb(14,128,116)" stroke-opacity="10000" stroke-linejoin="miter" stroke-linecap="square" stroke-miterlimit="3"/><path d=" M 276.233 370.667 C 261.492 376.615 243.004 385.063 220.74 395.98 C 209.567 391.019 196.272 396.546 180.823 412.531 C 186.678 410.284 191.231 409.969 194.453 411.557 C 186.056 414.538 180.874 418.442 178.876 423.24 C 173.046 424.138 166.24 428.042 158.431 434.923 C 155.58 438.278 154.94 441.208 156.484 443.685 C 153.428 447.969 153.438 450.9 156.484 452.447 C 152.246 458.166 152.58 462.07 157.458 464.13 C 156.391 481.595 162.242 488.744 174.982 485.548 C 163.928 482.423 161.991 474.969 169.141 463.156 C 171.133 464.573 173.089 464.908 174.982 464.13 C 179.304 459.735 180.287 455.525 177.903 451.473 C 182.89 456.638 185.171 451.78 184.718 436.87 C 190.833 438.402 190.213 437.134 196.401 429.081 C 197.8 429.589 200.194 428.148 203.553 424.728 C 206.978 423.776 210.358 421.735 213.661 418.576 C 216.582 417.184 218.951 415.18 220.74 412.531 C 223.398 412.469 226.004 410.532 228.528 408.636 C 231.031 408.361 233.575 406.661 236.128 403.506 C 240.421 403.092 243.417 400.595 245.079 395.98 L 251.894 389.165 C 261.17 384.554 269.942 379.696 278.18 374.562 L 276.233 370.667 Z " id="feather" fill="rgb(53,206,190)"/></g><path d=" M 276.233 370.667 C 261.492 376.615 243.004 385.063 220.74 395.98 C 209.567 391.019 196.272 396.546 180.823 412.531 C 186.678 410.284 191.231 409.969 194.453 411.557 C 186.056 414.538 180.874 418.442 178.876 423.24 C 173.046 424.138 166.24 428.042 158.431 434.923 C 155.58 438.278 154.94 441.208 156.484 443.685 C 153.428 447.969 153.438 450.9 156.484 452.447 C 152.246 458.166 152.58 462.07 157.458 464.13 C 156.391 481.595 162.242 488.744 174.982 485.548 C 163.928 482.423 161.991 474.969 169.141 463.156 C 171.133 464.573 173.089 464.908 174.982 464.13 C 179.304 459.735 180.287 455.525 177.903 451.473 C 182.89 456.638 185.171 451.78 184.718 436.87 C 190.833 438.402 190.213 437.134 196.401 429.081 C 197.8 429.589 200.194 428.148 203.553 424.728 C 206.978 423.776 210.358 421.735 213.661 418.576 C 216.582 417.184 218.951 415.18 220.74 412.531 C 223.398 412.469 226.004 410.532 228.528 408.636 C 231.031 408.361 233.575 406.661 236.128 403.506 C 240.421 403.092 243.417 400.595 245.079 395.98 L 251.894 389.165 C 261.17 384.554 269.942 379.696 278.18 374.562 L 276.233 370.667 Z " id="feather" fill="rgb(53,206,190)"/><clipPath id="_clipPath_u1tZRLuXoLnW9cgEWSVE5ikJfEWevVnG"><path d=" M -1927 -2000 L 2073 -2000 L 2073 2000 L -1927 2000 L -1927 -2000 Z  M 281.101 371.641 C 200.081 399.19 160.174 433.923 161.352 475.812 L 281.101 371.641 Z " fill-rule="evenodd" id="Compound Path" fill="rgb(255,255,255)"/></clipPath><g clip-path="url(#_clipPath_u1tZRLuXoLnW9cgEWSVE5ikJfEWevVnG)"><mask id="_mask_13yxiF66V8q1XoJiPGB7SsaF4ztQEDDi" x="-200%" y="-200%" width="400%" height="400%"><rect x="-200%" y="-200%" width="400%" height="400%" style="fill:white;"/><path d=" M 281.101 371.641 C 200.081 399.19 160.174 433.923 161.352 475.812" id="Path" fill="black" stroke="none"/></mask><path d=" M 281.101 371.641 C 200.081 399.19 160.174 433.923 161.352 475.812" id="Path" fill="none" mask="url(#_mask_13yxiF66V8q1XoJiPGB7SsaF4ztQEDDi)" stroke-width="2" stroke="rgb(14,128,116)" stroke-opacity="10000" stroke-linejoin="miter" stroke-linecap="square" stroke-miterlimit="3"/><path d=" M 281.101 371.641 C 200.081 399.19 160.174 433.923 161.352 475.812" id="Path" fill="none"/></g><path d=" M 281.101 371.641 C 200.081 399.19 160.174 433.923 161.352 475.812" id="Path" fill="none"/><path d=" M 369.695 335.619 C 348.978 340.599 325.694 325.553 314.202 329.778 C 299.205 335.291 277.315 354.286 272.339 363.852 C 267.364 373.419 281.112 385.505 273.312 391.112 Q 310.547 369.836 369.695 335.619 Z " id="brim" fill="rgb(14,128,116)"/><path d=" M 408.638 332.698 C 416.247 325.783 422.969 308.259 407.664 315.174 C 388.349 325.377 367.265 334.149 344.383 341.46 C 316.961 350.223 292.732 368.341 270.392 392.086 C 280.149 409.197 288.271 420.566 294.731 426.161 C 357.647 380.433 395.646 349.308 408.638 332.698 Z " id="top" fill="rgb(14,128,116)"/><path d=" M 399.876 321.989 C 357.092 337.541 340.611 343.716 318.096 353.143 Q 295.583 362.571 273.312 390.139 Q 272.562 392.877 277.206 392.086 C 288.558 373.789 317.126 356.599 362.88 340.487 C 386.186 332.598 398.528 326.441 399.876 321.989 Z " id="highlight" fill="rgb(190,244,244)"/></g><g id="bugel"><path d=" M 626.513 311.919 C 658.848 311.873 679.204 384.334 698.126 411.744 C 717.047 439.153 771.541 453.037 823.99 459.486 C 801.695 491.009 765.419 523.085 728.507 531.098 C 691.595 539.112 660.512 556.494 635.193 583.18 C 577.96 581.708 533.255 544.596 515.838 515.908 C 498.422 487.22 475.784 415.831 472.437 407.404 C 469.09 398.976 461.878 393.21 450.736 390.043 C 522.592 382.54 581.271 356.586 626.513 311.919 Z " id="flag-outer" fill="rgb(53,206,190)"/><clipPath id="_clipPath_wcdEPllx82lfzz4txm3chMW4UKlo5zF6"><path d=" M -1927 -2000 L 2073 -2000 L 2073 2000 L -1927 2000 L -1927 -2000 Z  M 626.513 320.6 C 656.78 320.556 671.734 388.661 689.445 414.317 C 707.157 439.974 755.365 459.959 804.46 465.996 C 788.401 499.092 752.275 521.607 710.742 530.101 C 669.21 538.596 654.596 556.317 633.023 576.67 C 579.451 575.291 535.5 534.089 522.348 513.738 C 509.197 493.386 481.7 403.872 468.096 394.383 C 535.357 387.36 584.164 362.41 626.513 320.6 Z " fill-rule="evenodd" id="Compound Path" fill="rgb(255,255,255)"/></clipPath><g clip-path="url(#_clipPath_wcdEPllx82lfzz4txm3chMW4UKlo5zF6)"><mask id="_mask_H9VtSR7hveFHMGf6KQeCiXP5sHEayzHD" x="-200%" y="-200%" width="400%" height="400%"><rect x="-200%" y="-200%" width="400%" height="400%" style="fill:white;"/><path d=" M 626.513 320.6 C 656.78 320.556 671.734 388.661 689.445 414.317 C 707.157 439.974 755.365 459.959 804.46 465.996 C 788.401 499.092 752.275 521.607 710.742 530.101 C 669.21 538.596 654.596 556.317 633.023 576.67 C 579.451 575.291 535.5 534.089 522.348 513.738 C 509.197 493.386 481.7 403.872 468.096 394.383 C 535.357 387.36 584.164 362.41 626.513 320.6 Z " id="flag-inner" fill="black" stroke="none"/></mask><path d=" M 626.513 320.6 C 656.78 320.556 671.734 388.661 689.445 414.317 C 707.157 439.974 755.365 459.959 804.46 465.996 C 788.401 499.092 752.275 521.607 710.742 530.101 C 669.21 538.596 654.596 556.317 633.023 576.67 C 579.451 575.291 535.5 534.089 522.348 513.738 C 509.197 493.386 481.7 403.872 468.096 394.383 C 535.357 387.36 584.164 362.41 626.513 320.6 Z " id="flag-inner" fill="rgb(14,128,116)" mask="url(#_mask_H9VtSR7hveFHMGf6KQeCiXP5sHEayzHD)" stroke-width="2" stroke="rgb(252,255,255)" stroke-opacity="10000" stroke-linejoin="miter" stroke-linecap="square" stroke-miterlimit="3"/><path d=" M 626.513 320.6 C 656.78 320.556 671.734 388.661 689.445 414.317 C 707.157 439.974 755.365 459.959 804.46 465.996 C 788.401 499.092 752.275 521.607 710.742 530.101 C 669.21 538.596 654.596 556.317 633.023 576.67 C 579.451 575.291 535.5 534.089 522.348 513.738 C 509.197 493.386 481.7 403.872 468.096 394.383 C 535.357 387.36 584.164 362.41 626.513 320.6 Z " id="flag-inner" fill="rgb(14,128,116)"/></g><path d=" M 626.513 320.6 C 656.78 320.556 671.734 388.661 689.445 414.317 C 707.157 439.974 755.365 459.959 804.46 465.996 C 788.401 499.092 752.275 521.607 710.742 530.101 C 669.21 538.596 654.596 556.317 633.023 576.67 C 579.451 575.291 535.5 534.089 522.348 513.738 C 509.197 493.386 481.7 403.872 468.096 394.383 C 535.357 387.36 584.164 362.41 626.513 320.6 Z " id="flag-inner" fill="rgb(14,128,116)"/><path d=" M 418.185 396.554 Q 409.518 393.276 409.504 398.724 C 409.497 402.017 411.775 409.521 416.015 409.574 Q 419.537 409.617 420.355 403.064 L 635.193 303.239 C 724.226 267.01 720.736 300.168 737.187 294.559 C 758.806 287.189 718.497 205.866 704.636 218.606 C 702.591 220.487 692.744 258.281 628.683 292.389 C 595.674 309.965 525.529 344.708 418.185 396.554 Z " id="Path" fill="rgb(53,206,190)"/><clipPath id="_clipPath_m8hGUJDQ8w0MPMWk4OM8UI9IoRLT2kBQ"><path d=" M -1927 -2000 L 2073 -2000 L 2073 2000 L -1927 2000 L -1927 -2000 Z  M 713.377 259.986 C 705.006 239.313 703.064 220.565 709.041 218.144 C 715.02 215.723 726.67 230.541 735.04 251.214 C 743.41 271.886 745.352 290.634 739.375 293.056 C 733.396 295.476 721.746 280.658 713.377 259.986 Z " fill-rule="evenodd" id="Compound Path" fill="rgb(255,255,255)"/></clipPath><g clip-path="url(#_clipPath_m8hGUJDQ8w0MPMWk4OM8UI9IoRLT2kBQ)"><mask id="_mask_TSmOk6pbGye6sfSKYafApLUyWZjupgUC" x="-200%" y="-200%" width="400%" height="400%"><rect x="-200%" y="-200%" width="400%" height="400%" style="fill:white;"/><path d=" M 713.377 259.986 C 705.006 239.313 703.064 220.565 709.041 218.144 C 715.02 215.723 726.67 230.541 735.04 251.214 C 743.41 271.886 745.352 290.634 739.375 293.056 C 733.396 295.476 721.746 280.658 713.377 259.986 Z " id="Path" fill="black" stroke="none"/></mask><path d=" M 713.377 259.986 C 705.006 239.313 703.064 220.565 709.041 218.144 C 715.02 215.723 726.67 230.541 735.04 251.214 C 743.41 271.886 745.352 290.634 739.375 293.056 C 733.396 295.476 721.746 280.658 713.377 259.986 Z " id="Path" fill="rgb(14,128,116)" mask="url(#_mask_TSmOk6pbGye6sfSKYafApLUyWZjupgUC)" stroke-width="2" stroke="rgb(37,190,174)" stroke-opacity="10000" stroke-linejoin="miter" stroke-linecap="butt" stroke-miterlimit="3"/><path d=" M 713.377 259.986 C 705.006 239.313 703.064 220.565 709.041 218.144 C 715.02 215.723 726.67 230.541 735.04 251.214 C 743.41 271.886 745.352 290.634 739.375 293.056 C 733.396 295.476 721.746 280.658 713.377 259.986 Z " id="Path" fill="rgb(14,128,116)"/></g><path d=" M 713.377 259.986 C 705.006 239.313 703.064 220.565 709.041 218.144 C 715.02 215.723 726.67 230.541 735.04 251.214 C 743.41 271.886 745.352 290.634 739.375 293.056 C 733.396 295.476 721.746 280.658 713.377 259.986 Z " id="Path" fill="rgb(14,128,116)"/><path d=" M 626.513 301.069 C 623.424 295.844 615.746 294.014 619.354 291.881 C 622.963 289.747 628.4 292.257 631.49 297.483 C 634.579 302.709 634.158 308.683 630.549 310.816 C 626.941 312.951 629.602 306.295 626.513 301.069 Z " id="Path" fill="rgb(14,128,116)"/><path d=" M 449.619 386.728 C 447.954 383.911 441.562 384.256 445.17 382.122 C 448.779 379.989 453.061 380.544 454.726 383.362 C 456.391 386.179 454.814 390.198 451.205 392.331 C 447.597 394.464 451.285 389.545 449.619 386.728 Z " id="Path" fill="rgb(14,128,116)"/></g><clipPath id="_clipPath_nioz7gnZABazjYa6FbO2JDnTkGqTFxqr"><path d=" M -1927 -2000 L 2073 -2000 L 2073 2000 L -1927 2000 L -1927 -2000 Z  M 882.795 723.189 L 496.873 946 L 110.953 723.189 L 110.953 277.566 L 496.873 54.755 L 882.795 277.566 L 882.795 723.189 L 882.795 723.189 Z " fill-rule="evenodd" id="Compound Path" fill="rgb(255,255,255)"/></clipPath><g clip-path="url(#_clipPath_nioz7gnZABazjYa6FbO2JDnTkGqTFxqr)"><mask id="_mask_nL5Ykw7w9hN3XPNB5xOostYkwwpw0CBn" x="-200%" y="-200%" width="400%" height="400%"><rect x="-200%" y="-200%" width="400%" height="400%" style="fill:white;"/><path d=" M 882.795 723.189 L 496.873 946 L 110.953 723.189 L 110.953 277.566 L 496.873 54.755 L 882.795 277.566 L 882.795 723.189 Z " id="outer-hex" fill="black" stroke="none"/></mask><path d=" M 882.795 723.189 L 496.873 946 L 110.953 723.189 L 110.953 277.566 L 496.873 54.755 L 882.795 277.566 L 882.795 723.189 Z " id="outer-hex" fill="none" mask="url(#_mask_nL5Ykw7w9hN3XPNB5xOostYkwwpw0CBn)" stroke-width="80" stroke="rgb(14,128,116)" stroke-opacity="10000" stroke-linejoin="miter" stroke-linecap="square" stroke-miterlimit="3"/><path d=" M 882.795 723.189 L 496.873 946 L 110.953 723.189 L 110.953 277.566 L 496.873 54.755 L 882.795 277.566 L 882.795 723.189 Z " id="outer-hex" fill="none"/></g><path d=" M 882.795 723.189 L 496.873 946 L 110.953 723.189 L 110.953 277.566 L 496.873 54.755 L 882.795 277.566 L 882.795 723.189 Z " id="outer-hex" fill="none"/></svg>